<svg width="512" height="512" viewBox="0 0 24 24" fill="none" xmlns="http://www.w3.org/2000/svg">
  <defs>
    <linearGradient id="avatarGradient" x1="0" y1="0" x2="24" y2="24" gradientUnits="userSpaceOnUse">
      <stop offset="0%" stop-color="#22d3ee"/>
      <stop offset="100%" stop-color="#8b5cf6"/>
    </linearGradient>
  </defs>
  <rect width="24" height="24" rx="5" fill="url(#avatarGradient)"/>
  <g stroke="#050505" stroke-width="1.2" stroke-linecap="round" stroke-linejoin="round"
     transform="translate(12 12) scale(0.6) translate(-12 -12)">
    <path d="M12 5a3 3 0 1 0-5.997.125 4 4 0 0 0-2.526 5.77 4 4 0 0 0 .556 6.588A4 4 0 1 0 12 18Z"/>
    <path d="M12 5a3 3 0 1 1 5.997.125 4 4 0 0 1 2.526 5.77 4 4 0 0 1-.556 6.588A4 4 0 1 1 12 18Z"/>
    <path d="M15 13a4.5 4.5 0 0 1-3-4 4.5 4.5 0 0 1-3 4"/>
    <path d="M17.599 6.5a3 3 0 0 0 .399-1.375"/>
    <path d="M6.003 5.125A3 3 0 0 0 6.401 6.5"/>
    <path d="M3.477 10.896a4 4 0 0 1 .585-.396"/>
    <path d="M19.938 10.5a4 4 0 0 1 .585.396"/>
    <path d="M6 18a4 4 0 0 1-1.967-.516"/>
    <path d="M19.967 17.484A4 4 0 0 1 18 18"/>
  </g>
</svg>
